<?xml version="1.0" encoding="UTF-8" standalone="no"?>
<!-- Created with Inkscape (http://www.inkscape.org/) -->

<svg
   xmlns:dc="http://purl.org/dc/elements/1.1/"
   xmlns:cc="http://creativecommons.org/ns#"
   xmlns:rdf="http://www.w3.org/1999/02/22-rdf-syntax-ns#"
   xmlns:svg="http://www.w3.org/2000/svg"
   xmlns="http://www.w3.org/2000/svg"
   xmlns:sodipodi="http://sodipodi.sourceforge.net/DTD/sodipodi-0.dtd"
   xmlns:inkscape="http://www.inkscape.org/namespaces/inkscape"
   width="405"
   height="365"
   viewBox="0 0 107.15625 96.572919"
   version="1.1"
   id="svg8"
   sodipodi:docname="logo.svg"
   inkscape:version="0.92.3 (unknown)">
  <defs
     id="defs2" />
  <sodipodi:namedview
     id="base"
     pagecolor="#ffffff"
     bordercolor="#666666"
     borderopacity="1.0"
     inkscape:pageopacity="0.0"
     inkscape:pageshadow="2"
     inkscape:zoom="2"
     inkscape:cx="292.26286"
     inkscape:cy="212.4806"
     inkscape:document-units="px"
     inkscape:current-layer="layer1"
     showgrid="true"
     units="px"
     inkscape:showpageshadow="false"
     borderlayer="true"
     showguides="true"
     inkscape:guide-bbox="true"
     inkscape:window-width="2560"
     inkscape:window-height="1407"
     inkscape:window-x="0"
     inkscape:window-y="33"
     inkscape:window-maximized="1"
     inkscape:pagecheckerboard="true"
     fit-margin-top="0"
     fit-margin-left="0"
     fit-margin-right="0"
     fit-margin-bottom="0">
    <inkscape:grid
       type="xygrid"
       id="grid4485"
       empspacing="5"
       originx="0"
       originy="-168.01043" />
    <sodipodi:guide
       position="677.33334,117.73958"
       orientation="1,0"
       id="guide4487"
       inkscape:locked="false"
       inkscape:label="2560"
       inkscape:color="rgb(0,0,255)" />
    <sodipodi:guide
       position="0,-168.01042"
       orientation="1,0"
       id="guide4489"
       inkscape:locked="false"
       inkscape:label="1000"
       inkscape:color="rgb(0,0,255)" />
    <sodipodi:guide
       position="264.58333,96.572909"
       orientation="1,0"
       id="guide4495"
       inkscape:locked="false"
       inkscape:label="1000"
       inkscape:color="rgb(255,0,133)" />
  </sodipodi:namedview>
  <metadata
     id="metadata5">
    <rdf:RDF>
      <cc:Work
         rdf:about="">
        <dc:format>image/svg+xml</dc:format>
        <dc:type
           rdf:resource="http://purl.org/dc/dcmitype/StillImage" />
        <dc:title></dc:title>
      </cc:Work>
    </rdf:RDF>
  </metadata>
  <g
     inkscape:label="Capa 1"
     inkscape:groupmode="layer"
     id="layer1"
     transform="translate(0,-32.416649)">
    <rect
       style="display:inline;opacity:1;fill:none;fill-opacity:1;stroke:none;stroke-width:0.26458335"
       id="rect4281"
       width="106.36252"
       height="35.45417"
       x="9.2464987e-09"
       y="32.416653"
       inkscape:export-filename="/home/uri/nitrux_logotype_2_small.png"
       inkscape:export-xdpi="96"
       inkscape:export-ydpi="96" />
    <rect
       style="display:inline;opacity:1;fill:#231f20;fill-opacity:1;stroke:none;stroke-width:0.26458335"
       id="rect5020"
       width="0.79374999"
       height="20.108332"
       x="9.2464987e-09"
       y="41.1479"
       inkscape:export-filename="/home/uri/nitrux_logotype_2_small.png"
       inkscape:export-xdpi="96"
       inkscape:export-ydpi="96" />
    <rect
       style="display:inline;opacity:1;fill:#231f20;fill-opacity:1;stroke:none;stroke-width:0.26458335"
       id="rect5030"
       width="0.5291667"
       height="21.431244"
       x="12.435415"
       y="39.824978"
       inkscape:export-filename="/home/uri/nitrux_logotype_2_small.png"
       inkscape:export-xdpi="96"
       inkscape:export-ydpi="96" />
    <path
       style="display:inline;opacity:1;fill:#231f20;fill-opacity:1;fill-rule:evenodd;stroke:none;stroke-width:0.26458335px;stroke-linecap:butt;stroke-linejoin:miter;stroke-opacity:1"
       d="M 12.435417,61.256234 1.3067902e-7,44.587484 v -4.7625 L 12.964583,57.022904 v 4.23332 z"
       id="path5032"
       inkscape:connector-curvature="0"
       inkscape:export-filename="/home/uri/nitrux_logotype_2_small.png"
       inkscape:export-xdpi="96"
       inkscape:export-ydpi="96" />
    <path
       style="display:inline;opacity:1;fill:#231f20;fill-opacity:1;fill-rule:evenodd;stroke:none;stroke-width:0.26458335px;stroke-linecap:butt;stroke-linejoin:miter;stroke-opacity:1"
       d="m 0.79375013,47.762484 c 0,-0.79375 0.78492707,-1.05833 1.32291707,-0.33866 v -2.04259 H 0.79375013 Z"
       id="path5038"
       inkscape:connector-curvature="0"
       sodipodi:nodetypes="ccccc"
       inkscape:export-filename="/home/uri/nitrux_logotype_2_small.png"
       inkscape:export-xdpi="96"
       inkscape:export-ydpi="96" />
    <rect
       style="display:inline;opacity:1;fill:#231f20;fill-opacity:1;stroke:none;stroke-width:0.26458335"
       id="rect5062"
       width="2.9104187"
       height="21.431248"
       x="14.552082"
       y="39.824978"
       inkscape:export-filename="/home/uri/nitrux_logotype_2_small.png"
       inkscape:export-xdpi="96"
       inkscape:export-ydpi="96" />
    <rect
       y="39.824978"
       x="28.310419"
       height="21.431244"
       width="0.5291667"
       id="rect5082"
       style="display:inline;opacity:1;fill:#231f20;fill-opacity:1;stroke:none;stroke-width:0.26458335"
       inkscape:export-filename="/home/uri/nitrux_logotype_2_small.png"
       inkscape:export-xdpi="96"
       inkscape:export-ydpi="96" />
    <path
       inkscape:connector-curvature="0"
       style="display:inline;opacity:1;fill:#231f20;fill-opacity:1;fill-rule:evenodd;stroke:none;stroke-width:0.26458335px;stroke-linecap:butt;stroke-linejoin:miter;stroke-opacity:1"
       d="m 29.897917,49.614564 v 0.26459 h -0.264583 c -0.439738,0 -0.79375,0.35401 -0.79375,0.79375 v -1.05834 z"
       id="path5084"
       inkscape:export-filename="/home/uri/nitrux_logotype_2_small.png"
       inkscape:export-xdpi="96"
       inkscape:export-ydpi="96" />
    <rect
       style="display:inline;opacity:1;fill:#231f20;fill-opacity:1;stroke:none;stroke-width:0.26458335"
       id="rect5086"
       width="15.874997"
       height="10.054166"
       x="28.575006"
       y="39.824978"
       ry="5.0181804"
       inkscape:export-filename="/home/uri/nitrux_logotype_2_small.png"
       inkscape:export-xdpi="96"
       inkscape:export-ydpi="96" />
    <rect
       style="display:inline;opacity:1;fill:#231f20;fill-opacity:1;stroke:none;stroke-width:0.26458335"
       id="rect5088"
       width="7.9374967"
       height="10.054166"
       x="28.575006"
       y="39.824978"
       ry="0"
       inkscape:export-filename="/home/uri/nitrux_logotype_2_small.png"
       inkscape:export-xdpi="96"
       inkscape:export-ydpi="96" />
    <path
       style="display:inline;opacity:1;fill:#231f20;fill-opacity:1;fill-rule:evenodd;stroke:none;stroke-width:0.26458335px;stroke-linecap:butt;stroke-linejoin:miter;stroke-opacity:1"
       d="m 40.745831,61.256224 3.704175,-3e-5 -16.139589,-21.43121 v 4.7625 z"
       id="path5094"
       inkscape:connector-curvature="0"
       sodipodi:nodetypes="ccccc"
       inkscape:export-filename="/home/uri/nitrux_logotype_2_small.png"
       inkscape:export-xdpi="96"
       inkscape:export-ydpi="96" />
    <path
       style="display:inline;opacity:1;fill:#231f20;fill-opacity:1;stroke:none;stroke-width:0.26458335"
       d="m 33.3375,39.824984 v 7.67292 3.175 2.91041 c 0,4.2508 3.422121,7.67292 7.672917,7.67292 4.250796,0 7.672917,-3.42212 7.672917,-7.67292 v -2.91041 -3.175 -7.67292 h -0.529167 v 6.87917 h -0.0067 c 0.0032,0.088 0.0067,0.17577 0.0067,0.26458 v 6.61458 c 0,3.95764 -3.186113,7.14375 -7.14375,7.14375 -1.707983,0 -3.271409,-0.59424 -4.497917,-1.58698 v -19.3151 h -2.645833 z m 0.529167,13.75833 c 0,0.1321 0.0043,0.26298 0.01138,0.39326 -0.007,-0.1303 -0.01138,-0.26114 -0.01138,-0.39326 z m 0.02119,0.52504 c 0.0064,0.0885 0.01318,0.177 0.02273,0.26458 -0.0096,-0.0876 -0.01635,-0.17604 -0.02273,-0.26458 z m 0.04031,0.40204 c 0.01074,0.0834 0.02209,0.16661 0.03566,0.24908 -0.01355,-0.0824 -0.02492,-0.16569 -0.03566,-0.24908 z m 0.06098,0.39171 c 0.01437,0.0774 0.02969,0.15447 0.04651,0.23099 -0.0168,-0.0765 -0.03216,-0.15355 -0.04651,-0.23099 z m 0.08217,0.3855 c 0.01974,0.0811 0.04111,0.16139 0.06356,0.24133 -0.02244,-0.0799 -0.04385,-0.16025 -0.06356,-0.24133 z m 0.09457,0.35089 c 0.0303,0.10159 0.06304,0.20217 0.09767,0.30179 -0.03461,-0.0997 -0.06738,-0.20015 -0.09767,-0.30179 z m 0.11679,0.35915 c 0.04312,0.12071 0.08918,0.24002 0.13849,0.3576 0.05102,0.12164 0.105342,0.2416 0.162783,0.35967 0.05362,0.11022 0.110461,0.21863 0.169497,0.32556 -0.05902,-0.10698 -0.115893,-0.21529 -0.169497,-0.32556 -0.05741,-0.1181 -0.111792,-0.23801 -0.162783,-0.35967 -0.04929,-0.11762 -0.0954,-0.23685 -0.13849,-0.3576 z m 0.519348,1.12809 c 0.04618,0.081 0.0934,0.16135 0.142626,0.2403 -0.04921,-0.079 -0.09646,-0.15928 -0.142626,-0.2403 z m 0.198437,0.32763 c 0.05005,0.0777 0.101568,0.15436 0.154511,0.22996 -0.05295,-0.0756 -0.10446,-0.15218 -0.154511,-0.22996 z m 0.211355,0.31006 c 0.05629,0.0781 0.114305,0.15484 0.173632,0.23048 -0.05936,-0.0757 -0.117316,-0.15234 -0.173632,-0.23048 z m 0.225827,0.29714 c 0.07034,0.0875 0.142713,0.1733 0.21704,0.25735 -0.07431,-0.0841 -0.146714,-0.16981 -0.21704,-0.25735 z m 0.235643,0.27905 c 0.25708,0.28838 0.537221,0.55558 0.837676,0.79892 -0.300421,-0.24332 -0.58067,-0.51053 -0.837676,-0.79892 z"
       id="rect5096"
       inkscape:connector-curvature="0"
       inkscape:export-filename="/home/uri/nitrux_logotype_2_small.png"
       inkscape:export-xdpi="96"
       inkscape:export-ydpi="96" />
    <rect
       y="39.824978"
       x="21.43125"
       height="21.431248"
       width="2.9104187"
       id="rect5064"
       style="display:inline;opacity:1;fill:#231f20;fill-opacity:1;stroke:none;stroke-width:0.26458335"
       inkscape:export-filename="/home/uri/nitrux_logotype_2_small.png"
       inkscape:export-xdpi="96"
       inkscape:export-ydpi="96" />
    <path
       style="display:inline;opacity:1;fill:#231f20;fill-opacity:1;stroke:none;stroke-width:0.26458335"
       d="m 12.435417,39.824984 2.38125,2.91042 h 8.202083 8.202084 l 2.38125,-2.91042 H 23.01875 Z"
       id="rect5066"
       inkscape:connector-curvature="0"
       inkscape:export-filename="/home/uri/nitrux_logotype_2_small.png"
       inkscape:export-xdpi="96"
       inkscape:export-ydpi="96" />
    <path
       style="display:inline;opacity:1;fill:#231f20;fill-opacity:1;fill-rule:evenodd;stroke:none;stroke-width:0.26458335px;stroke-linecap:butt;stroke-linejoin:miter;stroke-opacity:1"
       d="m 20.372917,42.470814 v 0.26459 H 20.6375 c 0.439738,0 0.79375,0.35401 0.79375,0.79375 v -1.05834 z"
       id="path5072"
       inkscape:connector-curvature="0"
       inkscape:export-filename="/home/uri/nitrux_logotype_2_small.png"
       inkscape:export-xdpi="96"
       inkscape:export-ydpi="96" />
    <path
       id="path5080"
       d="m 25.4,42.470814 v 0.26459 h -0.264583 c -0.439738,0 -0.79375,0.35401 -0.79375,0.79375 v -1.05834 z"
       style="display:inline;opacity:1;fill:#231f20;fill-opacity:1;fill-rule:evenodd;stroke:none;stroke-width:0.26458335px;stroke-linecap:butt;stroke-linejoin:miter;stroke-opacity:1"
       inkscape:connector-curvature="0"
       inkscape:export-filename="/home/uri/nitrux_logotype_2_small.png"
       inkscape:export-xdpi="96"
       inkscape:export-ydpi="96" />
    <path
       style="display:inline;opacity:1;fill:#231f20;fill-opacity:1;fill-rule:evenodd;stroke:none;stroke-width:0.26458335px;stroke-linecap:butt;stroke-linejoin:miter;stroke-opacity:1"
       d="m 44.979167,39.824984 8.069792,10.71563 1.852083,-2.45929 -6.217708,-8.25634 z m 10.847917,9.48624 -1.852084,2.45928 7.14375,9.48573 h 3.704167 z"
       id="path5130"
       inkscape:connector-curvature="0"
       inkscape:export-filename="/home/uri/nitrux_logotype_2_small.png"
       inkscape:export-xdpi="96"
       inkscape:export-ydpi="96" />
    <path
       style="display:inline;opacity:1;fill:#231f20;fill-opacity:1;fill-rule:evenodd;stroke:none;stroke-width:0.26458335px;stroke-linecap:butt;stroke-linejoin:miter;stroke-opacity:1"
       d="M 62.970834,39.824984 46.83125,61.256234 h 0.529167 L 63.5,39.824984 Z"
       id="path5136"
       inkscape:connector-curvature="0"
       inkscape:export-filename="/home/uri/nitrux_logotype_2_small.png"
       inkscape:export-xdpi="96"
       inkscape:export-ydpi="96" />
    <rect
       style="display:inline;opacity:1;fill:#231f20;fill-opacity:1;stroke:none;stroke-width:0.26458335"
       id="rect5147"
       width="35.454166"
       height="35.454166"
       x="-106.36249"
       y="32.416637"
       transform="scale(-1,1)"
       inkscape:export-filename="/home/uri/nitrux_logomark_2_small.png"
       inkscape:export-xdpi="96"
       inkscape:export-ydpi="96" />
    <path
       style="display:inline;opacity:1;fill:#fafafa;fill-opacity:1;stroke:none;stroke-width:0.26458335"
       d="m 77.522917,39.824984 v 1.32292 3.43958 16.66875 h 0.79375 v -13.49375 c 0,-0.79139 0.779907,-1.05585 1.31775,-0.34417 l 10.323914,13.83792 h 0.52917 v -4.23333 -4.7625 h -0.52917 v 4.06073 z"
       id="rect5159"
       inkscape:connector-curvature="0"
       inkscape:export-filename="/home/uri/nitrux_logomark_2_small.png"
       inkscape:export-xdpi="96"
       inkscape:export-ydpi="96" />
    <path
       style="display:inline;opacity:1;fill:#231f20;fill-opacity:1;fill-rule:evenodd;stroke:none;stroke-width:0.26458335px;stroke-linecap:butt;stroke-linejoin:miter;stroke-opacity:1"
       d="m 56.45426,50.143734 c -0.362593,-0.48148 0.07133,-1.05833 0.07133,-1.05833 l -0.698508,0.52916 0.264583,0.52917 z"
       id="path5187"
       inkscape:connector-curvature="0"
       sodipodi:nodetypes="ccccc"
       inkscape:export-filename="/home/uri/nitrux_logotype_2_small.png"
       inkscape:export-xdpi="96"
       inkscape:export-ydpi="96" />
    <path
       style="display:inline;opacity:1;fill:#231f20;fill-opacity:1;fill-rule:evenodd;stroke:none;stroke-width:0.26458335px;stroke-linecap:butt;stroke-linejoin:miter;stroke-opacity:1"
       d="m 54.74262,52.789564 c -0.503031,-0.66796 -1.006078,0 -1.006078,0 l 0.503042,-0.66797 z"
       id="path5203"
       inkscape:connector-curvature="0"
       sodipodi:nodetypes="cccc"
       inkscape:export-filename="/home/uri/nitrux_logotype_2_small.png"
       inkscape:export-xdpi="96"
       inkscape:export-ydpi="96" />
    <path
       style="display:inline;opacity:1;fill:#fafafa;fill-opacity:1;fill-rule:evenodd;stroke:none;stroke-width:0.26458335px;stroke-linecap:butt;stroke-linejoin:miter;stroke-opacity:1"
       d="m 79.904167,39.824984 8.069792,10.71563 1.852082,-2.45929 -6.217707,-8.25634 z m 17.991667,0 -7.143753,9.48624 -1.85208,2.45928 -1.243852,1.65107 0.267685,0.34778 0.737938,-0.97979 c 0,0 0.502592,-0.66796 1.005619,0 l 6.37636,8.46667 h 3.704173 l -8.368493,-11.1125 c -0.35766,-0.47493 0.0563,-1.03783 0.0677,-1.05317 l 6.977873,-9.26558 z"
       id="path5205"
       inkscape:connector-curvature="0"
       inkscape:export-filename="/home/uri/nitrux_logomark_2_small.png"
       inkscape:export-xdpi="96"
       inkscape:export-ydpi="96" />
    <rect
       style="display:inline;opacity:1;fill:#231f20;fill-opacity:1;stroke:none;stroke-width:0.26458335"
       id="rect4493"
       width="0.5291667"
       height="21.431244"
       x="28.310419"
       y="39.824978"
       inkscape:export-filename="/home/uri/nitrux_logotype_2_small.png"
       inkscape:export-xdpi="96"
       inkscape:export-ydpi="96" />
    <rect
       style="display:inline;opacity:1;fill:none;fill-opacity:1;stroke:none;stroke-width:0.5291667;stroke-linecap:round;stroke-linejoin:round;stroke-miterlimit:4;stroke-dasharray:none;stroke-dashoffset:0;stroke-opacity:1"
       id="rect1308"
       width="98.425003"
       height="50.799999"
       x="-2.1404228e-06"
       y="76.072899" />
    <path
       inkscape:connector-curvature="0"
       style="display:inline;opacity:1;fill:#231f20;fill-opacity:1;stroke:none;stroke-width:0.5291667;stroke-linecap:round;stroke-linejoin:round;stroke-miterlimit:4;stroke-dasharray:none;stroke-dashoffset:0;stroke-opacity:1"
       d="m 26.458329,90.624961 a 10.847914,10.847917 0 0 0 -3.95273,0.75706 l -1.147733,1.485696 a 9.2604138,10.31875 0 0 1 5.100463,-1.71359 9.2604138,10.31875 0 0 1 9.260417,10.318743 9.2604138,10.31875 0 0 1 -9.260417,10.31875 9.2604138,10.31875 0 0 1 -1.153935,-0.0904 l 0.450619,0.59428 a 10.847914,10.847917 0 0 0 0.703316,0.0253 10.847914,10.847917 0 0 0 10.847917,-10.84793 10.847914,10.847917 0 0 0 -10.847917,-10.847909 z m -8.3814,6.488493 -1.93735,2.50734 1.077971,1.420576 a 9.2604138,10.31875 0 0 1 0.859379,-3.927916 z"
       id="path1110" />
    <path
       style="display:inline;opacity:1;fill:#231f20;fill-opacity:1;stroke:none;stroke-width:0.26458335"
       d="m 0,90.624984 v 1.322917 3.439583 16.668746 H 0.79374995 V 98.562484 c 0,-0.791384 0.77990795,-1.055846 1.31774995,-0.344164 l 10.3239191,13.83791 h 0.529166 v -4.23333 -4.7625 h -0.529166 v 4.06073 z"
       id="path1083"
       inkscape:connector-curvature="0" />
    <path
       style="display:inline;opacity:1;fill:#231f20;fill-opacity:1;fill-rule:evenodd;stroke:none;stroke-width:0.26458335px;stroke-linecap:butt;stroke-linejoin:miter;stroke-opacity:1"
       d="M 2.3812509,90.624984 10.451043,101.3406 12.303127,98.881329 6.0854179,90.624984 Z m 17.9916691,0 -7.143751,9.486246 -1.852084,2.45927 -1.243851,1.65107 0.267684,0.34778 0.737939,-0.97979 c 0,0 0.502592,-0.66796 1.005623,0 l 6.376356,8.46667 h 3.704167 l -8.368483,-11.1125 c -0.357667,-0.47493 0.05629,-1.037821 0.0677,-1.053162 l 6.97787,-9.265584 z"
       id="path1085"
       inkscape:connector-curvature="0" />
    <path
       inkscape:connector-curvature="0"
       id="path1089"
       d="m 21.960417,107.29372 -5.820833,-7.672913 4.497917,-5.820833 1.322916,1.852083 z"
       style="display:inline;opacity:1;fill:#229df0;fill-opacity:1;fill-rule:evenodd;stroke:none;stroke-width:0.26458335px;stroke-linecap:butt;stroke-linejoin:miter;stroke-opacity:1" />
    <path
       style="display:inline;opacity:1;fill:#231f20;fill-opacity:1;stroke:none;stroke-width:0.26458335"
       d="m 36.247918,90.757252 c -3.078168,0 -5.55625,2.478082 -5.55625,5.55625 v 0.529167 c 0,3.078168 2.478082,5.556241 5.55625,5.556241 h 5.291666 c 0.08745,0 3.213161,-0.003 3.389458,-0.007 1.005036,0.91798 1.637626,2.23618 1.637626,3.71089 v 0.52917 c 0,2.785 -2.242077,5.02708 -5.027084,5.02708 h -5.291666 c -2.785007,0 -5.027084,-2.24208 -5.027084,-5.02708 v -0.26461 h -0.529166 v 0.26459 c 0,3.07816 2.478082,5.55624 5.55625,5.55624 h 5.291666 c 3.078168,0 5.55625,-2.47808 5.55625,-5.55624 v -0.52917 c 0,-3.07817 -2.478082,-5.55625 -5.55625,-5.55625 h -5.291666 c -0.08745,0 -3.213161,0.003 -3.389459,0.007 -1.005035,-0.917968 -1.637625,-2.236168 -1.637625,-3.710881 v -0.529167 c 0,-2.785007 2.242077,-5.027083 5.027084,-5.027083 h 5.291666 c 2.785007,0 5.027084,2.242076 5.027084,5.027083 v 0.264584 h 0.529166 v -0.264584 c 0,-3.078168 -2.478082,-5.55625 -5.55625,-5.55625 z"
       id="rect4297-4"
       inkscape:connector-curvature="0"
       sodipodi:nodetypes="ssssscsssssccssssssscsssssccsss" />
    <path
       style="display:inline;opacity:1;fill:#231f20;fill-opacity:1;fill-rule:evenodd;stroke:none;stroke-width:0.13229166px;stroke-linecap:butt;stroke-linejoin:miter;stroke-opacity:1"
       d="m 57.679162,76.072856 v 50.042704 l 1.615652,0.75731 h 0.07779 l 39.052391,-24.40781 v -0.51573 -1.42706 -0.002 L 69.585412,83.218371 v 1.473814 L 91.728495,97.977681 58.924292,118.78056 V 76.822489 Z"
       id="path1233"
       inkscape:connector-curvature="0"
       sodipodi:nodetypes="cccccccccccccc" />
  </g>
</svg>
